<svg id="Warstwa_1" data-name="Warstwa 1" xmlns="http://www.w3.org/2000/svg" viewBox="0 0 220 220"><defs><style>.cls-1{fill:#fff;}.cls-2{fill:#1b58a3;}</style></defs><circle class="cls-1" cx="110" cy="110" r="110"/><path class="cls-2" d="M121.48,80C109,81.54,93,94,93.35,102c6.68-11.54,17.41-17.36,29.49-21.33C122.88,79.44,122.07,79.94,121.48,80Z"/><path class="cls-2" d="M97.89,101.75c5.47-2.84,10.75-3.89,16-5,4-.09,8-.48,12,.48a4.13,4.13,0,0,0-3.06-1.63C115.59,93.28,101.86,96.35,97.89,101.75Z"/><path class="cls-2" d="M86.41,117.54a5.83,5.83,0,0,0-.27,8.19,22,22,0,0,1,5.29,8.66c1.4,4.21,3.08,5.5,7.32,5.86a25.51,25.51,0,0,1,3.43.72c.07-.67.14-1.33.22-2.19a2.81,2.81,0,0,1,1.16,2.29c.83,1.54,2.12,2.93,3.78,2.94,1,0,1.2-1.77,1.33-2.94a4.88,4.88,0,0,1-3.13-3c1.83-.89,2.07,2,3.71,1.46h0c-.7-9.2-4.43-16.77-11.89-22.45C92.35,113.29,91.13,113.26,86.41,117.54Z"/><path class="cls-2" d="M211.91,91.57c-4.08-14.88-22.34-46.64-24.38-49.16a58.85,58.85,0,0,0-20.41-15.76c-12.78-6.25-26.26-9.81-40.41-7.7C107,21.89,94.89,34.33,88.24,52.57c0,0-2.56,5.29-2.56,7.87,0,.86,0,1.72.91,2.27,4-6.07,9.85-9.24,16.26-11.78a35.73,35.73,0,0,0-6,10.5c-1.65,5.1-2.56,10.28-.78,15.58.47,1.23.18,3.9,2.63,1.39L100,77.1c1.2-.69,2.41-1.37,3.6-2.08,8.41-5,16.84-5.48,25.52-.48,6.87,4,12.48,9.31,17.81,15.07,4.29,4.65,6.3,10.66,9.81,15.69a32.08,32.08,0,0,1,5.42,13,68.82,68.82,0,0,1,1,10.53c.51,19.06-7.86,32.77-24.94,41.27-1.75.87-3.22,1.08-4.55-.6s-.56-3.12.71-4.21c2.92-2.51,4.37-5.85,5.28-9.36,3.08-11.87-1.25-21.83-8.62-30.8A24.36,24.36,0,0,0,119.31,117c-1.86-.58-3.88-.9-5.37.85s-.66,3.65.33,5.33c1.09,1.84,2.3,3.61,3.48,5.4a40.21,40.21,0,0,1,5.37,10.52,11.6,11.6,0,0,1,0,7.86c-1.33,3.27-2.69,3.5-4.92.87s-4.47-5-7.31-6.35c-2.79,3.9-.35,6.07,1.83,8.86,8,10.23,11.24,21.7,7.6,34.57l-.58-2.57c.63-9.95-.94-19.42-6.58-27.87-2.85-4.27-6.11-8.24-10.75-10.79-1.83-1-3.72-1.84-5.75-.7-2.19,1.25-1.49,3.45-1.18,5.21.46,2.61,1.43,5.13,2.14,7.7.64,2.33,1.84,4.54,1.58,7.11-8.15-2.06-14.77,6.64-19.65,25.72a13.68,13.68,0,0,1-.39-6.72c.4-2,.06-3.16-2.31-3.39s-4.29-1.81-6-3.47a23.42,23.42,0,0,1-5-7.64c-1.82,2.81-3.8,4.69-6.93,4.66-7.05-.07-13.35-10.71-10.13-17.37.32,1.7.53,3.29.94,4.83,1,3.64,2.23,7.16,5.42,9.56,2.75,2.07,7.19,1.61,8.73-1.38A71.78,71.78,0,0,1,73.65,153c1.54,2,.93,4.25,1,6.42.06,1.81-.35,3.66.37,5.39.23.54.76,1.25,1.26,1.34.69.12.91-.7,1.15-1.31.68-1.76,1.42-3.49,2.36-5.76.65,3.25-.45,5.44-1.64,7.65,2,.64,3.24-.66,4.69-1.56,3.29-2,3.68-6,3.81-8.67.4-7.95-1.61-15.46-8.76-20.54-2.72-1.93-5.12-2-7.9-.13-3.31,2.23-6.1,5.05-9.21,7.48h0a9.33,9.33,0,0,1-4.44,3.47c1.3-1.62,3-3.6,3.08-3.6a1.08,1.08,0,0,0-.34-.8c-2.1-.45-4.28.24-6.37-.38-5.58-.7-10.25-3.58-15-6.26-.58-.33-1.12-.72-.89-1.5s.94-.79,1.55-.93c2.29-.56,4.73-.64,7.06-2.07a107.13,107.13,0,0,1-10.94-4.5c-2-1-2.13-1.74-.39-3.12a17.06,17.06,0,0,0,5-6.21,87.8,87.8,0,0,0-12.89,2.36c-.49.14-1.08.24-1.26.86-1.49,4.88-5.79,7.18-9.56,10.12,2.77,1.32,10.51,1.08,10.84,2.27.39,1.41-8.1,4.06-11.44,5.21,4,3,7.49,5.94,11.68,7.93a2.19,2.19,0,0,1,1.56,2.41,46.8,46.8,0,0,0,4,20.57c2.53,6,4.91,12.2,9.82,16.73,7.46,6.88,15.81,12.33,25.72,15.24a56.83,56.83,0,0,0,41.84-3.17,19.31,19.31,0,0,1,11.26-1.67,60.46,60.46,0,0,0,12.18,0c12.52-.73,23.84-5.16,35.09-10.43C207.91,167.09,222.24,129.26,211.91,91.57ZM123,121.9c-.51,1.53-1.22,0-1.86,0a.15.15,0,0,0,0,.07h-.08c-.12.65-.94,1.18-.92,1.45.13,1.29-.17,2-1.56,1.78-.79-.09-1.6-.46-1.59-1.3,0-1.38,1.8-.17,2.13-1.27-.69-.4-1.65-1-.86-1.71s1.74,0,2.22,1l.58.09a.14.14,0,0,0,0-.06h.07c.09-.68-.7-1.85.81-1.72A1.3,1.3,0,0,1,123,121.9ZM99.28,152.81c-1.51-.42-2.26-1.36-1.91-3.21,1.41.71,2.83,1.05,2.92,2.75C100.29,152.5,99.57,152.88,99.28,152.81Zm3-3.52a.66.66,0,0,1-1,.49c-1.18-.6-1.51-1.63-1.45-3.27C101.57,147,102.53,147.72,102.31,149.29Zm1.48-.62c-.73-.15-.92-.76-1-1.38-.06-.44.08-.88.64-.75a1.47,1.47,0,0,1,1.07,1.32C104.31,148.21,104.43,148.81,103.79,148.67ZM185.61,85.3c-1.11.85-20.05-1.63-14.89,1,3.6,1.81,3.43,11.18,7.72,13.76,2.37,1.42-12.88.85-15.46-1.73-2-2-4,6.82-5,4.23a42.66,42.66,0,0,0-3.91-8.42,71.94,71.94,0,0,0-28.24-24.54c-2.76-1.35-5.73-2.52-8.95-2.07-5.61.78-19,7.8-19.17,9.29,0,0-6-14.61,11.84-28,1.2-.9.63-1.61-.6-1.91a5.6,5.6,0,0,0-2.54.17A35,35,0,0,0,88.12,57.23c10.46-26.87,25.18-32.67,36.41-35.4a28.63,28.63,0,0,1,9.23-1.06,86.8,86.8,0,0,1,21.69,4.34c9.28,3.26,18,7.38,25.17,14.4a77.77,77.77,0,0,1,10,11.62c-.13.75-2.71,12.78,2,30.48-2.14-1.37-12.57-2.4-12.61-2A33.32,33.32,0,0,0,185.61,85.3Z"/><path class="cls-2" d="M15.91,112.4c-.45.65-1.29,1.31-.61,2.25s1.51.55,2.35.38L26,113.41c-1.56,2.49-4.78,3.35-5.5,6.39a76.77,76.77,0,0,1,32.13-4.75c8.53.43,16,4.32,23.88,7,5.93,2,6.13,1.93,7-4.19a6,6,0,0,0,0-1.59,29.13,29.13,0,0,1,6-21c.61-.81,1.61-1.44,1.59-2.69-1.41-.43-2.75,0-4.11.16-1,.08-2.42.61-2.89-.61s1.07-1.61,1.9-2.12c2.09-1.29,4.5-2.13,7-4.6-7,.43-12.23-1.88-17.13-5.37a32,32,0,0,0-10.28-5c0-.32-1-.27-.42-.64a2.34,2.34,0,0,1,2.34-.08c2.11.93,4.41,1.31,6.44,2.49,3.31,1.92,3.39,1.85,3.82-2.13A25.7,25.7,0,0,0,78,70.13C77.34,59.64,72.41,51,65.84,43.2c-.93-1.11-1.92-2.7-3.65-2.1s-1.64,2.57-1.65,4.13c0,5.77,0,11.54,0,17.31,0,4.52-4.06,11.11-9.43,11.4-2,.11-3.89,1.1-5.79,1.81-7.86,3-13.36.3-15.76-7.63-1.21-4-2.25-8-4.64-11.54-1.07-1.57-2.2-3.46-4.45-3.16s-3.07,2.47-3.59,4.44c-2.53,9.61-1.68,19,1.66,28.3A11.78,11.78,0,0,0,25,93.34c2,.85,1.95,1.43,1,3.1A173.07,173.07,0,0,1,15.91,112.4ZM79.58,105a3.86,3.86,0,0,1,2.57,2.58c0,.45-2.19.38-2.57,0A1.6,1.6,0,0,1,79.58,105Zm.86,12.57c-1.39.75-1.82,2.43-3.94,2.3C77.51,118.36,78.05,116.84,80.44,117.55Zm-4.1-23.82c1.63,3.27.35,5.4-.87,7.5C74.53,98.81,75.15,96.65,76.34,93.73ZM66,110.69c.72-.2,2.41.29,2.24,1.2-.33,1.77-1,2.4-2.4,3.64C65.71,113.56,65,111,66,110.69Zm-4.75-5.18a11.49,11.49,0,0,1-9.11-2.37A13.75,13.75,0,0,1,61.26,105.51ZM44.4,109.26c-1.72.86-4.08,2.09-6.61,1.45a8.25,8.25,0,0,1,4-1.45Zm-3.72-2-7.79,2C35.07,106.65,37.67,106,40.68,107.23Zm-2.42-2.41L32,104.25a5.83,5.83,0,0,1-2.91-1C32.23,102.8,35.35,102.85,38.26,104.82Z"/></svg>